<svg xmlns="http://www.w3.org/2000/svg" xmlns:xlink="http://www.w3.org/1999/xlink" id="9c6c8999-df3d-469e-b9d8-8b9b57716d52" data-name="Suit &amp; Tie" viewBox="0 0 336 1344"><defs><style>.ea21d9d3-f2b5-4dd5-a129-6270ea58608c{fill:#edc942}.c4c9458a-9c5c-499f-8a24-75c9ad8435b3{fill:#4b4a4b}</style><clipPath id="103be814-b2bf-422f-9f70-ba039bc31051"><rect width="30" height="30" class="77fc63a7-2928-49ea-a303-9afeb8389513"/></clipPath><clipPath id="348d64ff-5ee7-49e7-82fb-ad64aca3d3aa" transform="translate(0 0)"><rect width="336" height="1344" class="77fc63a7-2928-49ea-a303-9afeb8389513"/></clipPath><pattern id="7ddf0d33-4587-445f-9e03-364b942a3c3d" width="30" height="30" data-name="Unnamed Pattern" patternTransform="matrix(1, 0, 0, -1, 0, 13718)" patternUnits="userSpaceOnUse" viewBox="0 0 30 30"><rect width="30" height="30" class="77fc63a7-2928-49ea-a303-9afeb8389513"/><g class="8c41d501-23ab-4a88-b48e-cb445bc55aec"><line x1="36" x2="18" y1="12" y2="-6" class="0106d3c0-a650-4ee1-a111-a07eed69d15c"/><line x1="42" x2="18" y1="12" y2="-12" class="0106d3c0-a650-4ee1-a111-a07eed69d15c"/><line x1="48" x2="18" y1="12" y2="-18" class="0106d3c0-a650-4ee1-a111-a07eed69d15c"/><line x1="54" x2="18" y1="12" y2="-24" class="0106d3c0-a650-4ee1-a111-a07eed69d15c"/><line x1="60" x2="18" y1="12" y2="-30" class="0106d3c0-a650-4ee1-a111-a07eed69d15c"/><line x1="66" x2="18" y1="12" y2="-36" class="0106d3c0-a650-4ee1-a111-a07eed69d15c"/><line x1="72" x2="18" y1="12" y2="-42" class="0106d3c0-a650-4ee1-a111-a07eed69d15c"/><line x1="72" x2="24" y1="6" y2="-42" class="0106d3c0-a650-4ee1-a111-a07eed69d15c"/><line x1="72" x2="30" y2="-42" class="0106d3c0-a650-4ee1-a111-a07eed69d15c"/><line x1="6" x2="-12" y1="12" y2="-6" class="0106d3c0-a650-4ee1-a111-a07eed69d15c"/><line x1="12" x2="-12" y1="12" y2="-12" class="0106d3c0-a650-4ee1-a111-a07eed69d15c"/><line x1="18" x2="-12" y1="12" y2="-18" class="0106d3c0-a650-4ee1-a111-a07eed69d15c"/><line x1="24" x2="-12" y1="12" y2="-24" class="0106d3c0-a650-4ee1-a111-a07eed69d15c"/><line x1="30" x2="-12" y1="12" y2="-30" class="0106d3c0-a650-4ee1-a111-a07eed69d15c"/><line x1="36" x2="-12" y1="12" y2="-36" class="0106d3c0-a650-4ee1-a111-a07eed69d15c"/><line x1="42" x2="-12" y1="12" y2="-42" class="0106d3c0-a650-4ee1-a111-a07eed69d15c"/><line x1="42" x2="-6" y1="6" y2="-42" class="0106d3c0-a650-4ee1-a111-a07eed69d15c"/><line x1="42" y2="-42" class="0106d3c0-a650-4ee1-a111-a07eed69d15c"/><line x2="-42" y1="12" y2="-30" class="0106d3c0-a650-4ee1-a111-a07eed69d15c"/><line x1="6" x2="-42" y1="12" y2="-36" class="0106d3c0-a650-4ee1-a111-a07eed69d15c"/><line x1="12" x2="-42" y1="12" y2="-42" class="0106d3c0-a650-4ee1-a111-a07eed69d15c"/><line x1="12" x2="-36" y1="6" y2="-42" class="0106d3c0-a650-4ee1-a111-a07eed69d15c"/><line x1="12" x2="-30" y2="-42" class="0106d3c0-a650-4ee1-a111-a07eed69d15c"/><line x1="36" x2="18" y1="42" y2="24" class="0106d3c0-a650-4ee1-a111-a07eed69d15c"/><line x1="42" x2="18" y1="42" y2="18" class="0106d3c0-a650-4ee1-a111-a07eed69d15c"/><line x1="48" x2="18" y1="42" y2="12" class="0106d3c0-a650-4ee1-a111-a07eed69d15c"/><line x1="54" x2="18" y1="42" y2="6" class="0106d3c0-a650-4ee1-a111-a07eed69d15c"/><line x1="60" x2="18" y1="42" class="0106d3c0-a650-4ee1-a111-a07eed69d15c"/><line x1="66" x2="18" y1="42" y2="-6" class="0106d3c0-a650-4ee1-a111-a07eed69d15c"/><line x1="72" x2="18" y1="42" y2="-12" class="0106d3c0-a650-4ee1-a111-a07eed69d15c"/><line x1="72" x2="24" y1="36" y2="-12" class="0106d3c0-a650-4ee1-a111-a07eed69d15c"/><line x1="72" x2="30" y1="30" y2="-12" class="0106d3c0-a650-4ee1-a111-a07eed69d15c"/><line x1="6" x2="-12" y1="42" y2="24" class="0106d3c0-a650-4ee1-a111-a07eed69d15c"/><line x1="12" x2="-12" y1="42" y2="18" class="0106d3c0-a650-4ee1-a111-a07eed69d15c"/><line x1="18" x2="-12" y1="42" y2="12" class="0106d3c0-a650-4ee1-a111-a07eed69d15c"/><line x1="24" x2="-12" y1="42" y2="6" class="0106d3c0-a650-4ee1-a111-a07eed69d15c"/><line x1="30" x2="-12" y1="42" class="0106d3c0-a650-4ee1-a111-a07eed69d15c"/><line x1="36" x2="-12" y1="42" y2="-6" class="0106d3c0-a650-4ee1-a111-a07eed69d15c"/><line x1="42" x2="-12" y1="42" y2="-12" class="0106d3c0-a650-4ee1-a111-a07eed69d15c"/><line x1="42" x2="-6" y1="36" y2="-12" class="0106d3c0-a650-4ee1-a111-a07eed69d15c"/><line x1="42" y1="30" y2="-12" class="0106d3c0-a650-4ee1-a111-a07eed69d15c"/><line x1="42" x2="6" y1="24" y2="-12" class="0106d3c0-a650-4ee1-a111-a07eed69d15c"/><line x1="42" x2="12" y1="18" y2="-12" class="0106d3c0-a650-4ee1-a111-a07eed69d15c"/><line x1="42" x2="18" y1="12" y2="-12" class="0106d3c0-a650-4ee1-a111-a07eed69d15c"/><line x1="42" x2="24" y1="6" y2="-12" class="0106d3c0-a650-4ee1-a111-a07eed69d15c"/><line x1="42" x2="30" y2="-12" class="0106d3c0-a650-4ee1-a111-a07eed69d15c"/><line x2="-42" y1="42" class="0106d3c0-a650-4ee1-a111-a07eed69d15c"/><line x1="6" x2="-42" y1="42" y2="-6" class="0106d3c0-a650-4ee1-a111-a07eed69d15c"/><line x1="12" x2="-42" y1="42" y2="-12" class="0106d3c0-a650-4ee1-a111-a07eed69d15c"/><line x1="12" x2="-36" y1="36" y2="-12" class="0106d3c0-a650-4ee1-a111-a07eed69d15c"/><line x1="12" x2="-30" y1="30" y2="-12" class="0106d3c0-a650-4ee1-a111-a07eed69d15c"/><line x1="12" x2="-24" y1="24" y2="-12" class="0106d3c0-a650-4ee1-a111-a07eed69d15c"/><line x1="12" x2="-18" y1="18" y2="-12" class="0106d3c0-a650-4ee1-a111-a07eed69d15c"/><line x1="12" x2="-12" y1="12" y2="-12" class="0106d3c0-a650-4ee1-a111-a07eed69d15c"/><line x1="12" x2="-6" y1="6" y2="-12" class="0106d3c0-a650-4ee1-a111-a07eed69d15c"/><line x1="12" y2="-12" class="0106d3c0-a650-4ee1-a111-a07eed69d15c"/><line x1="60" x2="18" y1="72" y2="30" class="0106d3c0-a650-4ee1-a111-a07eed69d15c"/><line x1="66" x2="18" y1="72" y2="24" class="0106d3c0-a650-4ee1-a111-a07eed69d15c"/><line x1="72" x2="18" y1="72" y2="18" class="0106d3c0-a650-4ee1-a111-a07eed69d15c"/><line x1="72" x2="24" y1="66" y2="18" class="0106d3c0-a650-4ee1-a111-a07eed69d15c"/><line x1="72" x2="30" y1="60" y2="18" class="0106d3c0-a650-4ee1-a111-a07eed69d15c"/><line x1="30" x2="-12" y1="72" y2="30" class="0106d3c0-a650-4ee1-a111-a07eed69d15c"/><line x1="36" x2="-12" y1="72" y2="24" class="0106d3c0-a650-4ee1-a111-a07eed69d15c"/><line x1="42" x2="-12" y1="72" y2="18" class="0106d3c0-a650-4ee1-a111-a07eed69d15c"/><line x1="42" x2="-6" y1="66" y2="18" class="0106d3c0-a650-4ee1-a111-a07eed69d15c"/><line x1="42" y1="60" y2="18" class="0106d3c0-a650-4ee1-a111-a07eed69d15c"/><line x1="42" x2="6" y1="54" y2="18" class="0106d3c0-a650-4ee1-a111-a07eed69d15c"/><line x1="42" x2="12" y1="48" y2="18" class="0106d3c0-a650-4ee1-a111-a07eed69d15c"/><line x1="42" x2="18" y1="42" y2="18" class="0106d3c0-a650-4ee1-a111-a07eed69d15c"/><line x1="42" x2="24" y1="36" y2="18" class="0106d3c0-a650-4ee1-a111-a07eed69d15c"/><line x1="42" x2="30" y1="30" y2="18" class="0106d3c0-a650-4ee1-a111-a07eed69d15c"/><line x2="-42" y1="72" y2="30" class="0106d3c0-a650-4ee1-a111-a07eed69d15c"/><line x1="6" x2="-42" y1="72" y2="24" class="0106d3c0-a650-4ee1-a111-a07eed69d15c"/><line x1="12" x2="-42" y1="72" y2="18" class="0106d3c0-a650-4ee1-a111-a07eed69d15c"/><line x1="12" x2="-36" y1="66" y2="18" class="0106d3c0-a650-4ee1-a111-a07eed69d15c"/><line x1="12" x2="-30" y1="60" y2="18" class="0106d3c0-a650-4ee1-a111-a07eed69d15c"/><line x1="12" x2="-24" y1="54" y2="18" class="0106d3c0-a650-4ee1-a111-a07eed69d15c"/><line x1="12" x2="-18" y1="48" y2="18" class="0106d3c0-a650-4ee1-a111-a07eed69d15c"/><line x1="12" x2="-12" y1="42" y2="18" class="0106d3c0-a650-4ee1-a111-a07eed69d15c"/><line x1="12" x2="-6" y1="36" y2="18" class="0106d3c0-a650-4ee1-a111-a07eed69d15c"/><line x1="12" y1="30" y2="18" class="0106d3c0-a650-4ee1-a111-a07eed69d15c"/></g></pattern></defs><title>avatar-suit-and-tie</title><g class="720c3bcc-6de3-46a2-b21a-e3467c0d356c"><rect width="144" height="48" y="1296" class="0c3ac024-6da9-40f3-aafb-45c73fc6f01d"/><rect width="144" height="48" x="192" y="1296" class="0c3ac024-6da9-40f3-aafb-45c73fc6f01d"/><polygon points="192 336 192 384 144 384 144 336 48 336 48 384 0 384 0 864 48 864 48 768 288 768 288 432 288 864 336 864 336 384 288 384 288 336 192 336" class="0c3ac024-6da9-40f3-aafb-45c73fc6f01d"/><polygon points="288 1296 192 1296 192 816 144 816 144 1296 48 1296 48 768 288 768 288 1296" class="0c3ac024-6da9-40f3-aafb-45c73fc6f01d"/><polygon points="240 288 240 384 96 384 96 48 288 48 288 288 240 288" class="0c3ac024-6da9-40f3-aafb-45c73fc6f01d"/><polygon points="192 0 192 48 96 48 96 192 143 192 144 144 192 144 192 96 288 96 336 96 336 0 192 0" class="ea21d9d3-f2b5-4dd5-a129-6270ea58608c"/><rect width="96" height="48" x="144" y="288" class="184032a3-1138-4306-beea-f8ec5d607c18"/><polygon points="288 288 97 288 96 192 144 192 144 240 288 240 288 288" class="5ef277d8-ac51-4304-92c9-fbf30b097b8f"/><polygon points="192 336 192 384 144 384 144 336 48 336 48 384 0 384 0 528 48 528 48 768 288 768 288 432 288 528 336 528 336 384 288 384 288 336 192 336" class="5ebe596c-4191-4458-9f05-174f51746f25"/><polygon points="288 864 192 864 192 816 144 816 144 864 48 864 48 720 288 720 288 864" class="8196d302-43fc-4001-8d49-e9358f92d0f4"/></g><g id="5553cda5-dbf4-4d92-bf98-f52f71caed6f" data-name="Dress Shirt"><polygon id="0f169f11-903d-4be1-8529-1e4b96fe60e2" points="336 767.83 288 767.83 288 783.83 288 479.83 288 783.83 48 783.83 48 479.83 48 671.83 48 767.83 0 767.83 0 383.83 48 383.83 48 335.83 144 335.83 144 383.83 192 383.83 192 335.83 288 335.83 288 383.83 336 383.83 336 767.83" class="151c7a60-74fb-4890-821a-e5e91e73649b" data-name="Plaid"/><line id="ebdea023-5bb8-4bde-aade-db85187bd74c" x1="144" x2="96" y1="335.83" y2="383.83" class="9aa5fb8a-4086-4f96-bb1a-7ae048ed70e1" data-name="Left Lapel"/><line id="e7e5cf9c-da3b-4950-9b7f-ea5c679865ab" x1="192" x2="240" y1="335.83" y2="383.83" class="9aa5fb8a-4086-4f96-bb1a-7ae048ed70e1" data-name="Right Lapel"/><g id="18a5150b-9038-4db8-8693-e75c223e4b09" data-name="Buttons"><rect width="16" height="16" x="160" y="399.83" class="82fbae5d-d635-4b3d-935e-a676b24b5537"/><rect width="16" height="16" x="160" y="447.83" class="82fbae5d-d635-4b3d-935e-a676b24b5537"/><rect width="16" height="16" x="160" y="495.83" class="82fbae5d-d635-4b3d-935e-a676b24b5537"/><rect width="16" height="16" x="160" y="543.83" class="82fbae5d-d635-4b3d-935e-a676b24b5537"/><rect width="16" height="16" x="160" y="591.83" class="82fbae5d-d635-4b3d-935e-a676b24b5537"/><rect width="16" height="16" x="160" y="639.83" class="82fbae5d-d635-4b3d-935e-a676b24b5537"/><rect width="16" height="16" x="160" y="687.83" class="82fbae5d-d635-4b3d-935e-a676b24b5537"/><rect width="16" height="16" x="160" y="735.83" class="82fbae5d-d635-4b3d-935e-a676b24b5537"/></g></g><polyline id="52ae48fe-545f-4ea6-beee-7b2b8f7f511e" points="144 816 144 1296 48 1296 48 720 288 720 288 1296 192 1296 192 816" class="533a0079-423c-4ace-8051-4ad8285f30d0" data-name="Pants"/><rect id="39d65479-4076-48b4-822f-d0d05dbf7a31" width="240" height="18" x="48" y="714" class="c4c9458a-9c5c-499f-8a24-75c9ad8435b3" data-name="Belt"/><g id="e61ce2ce-8d3d-4b73-9ef0-992fa70e9ed6" data-name="Jacket"><polyline id="da211d88-2797-475f-97b8-de36cacb3427" points="96 831.83 48 831.83 48 479.83 48 671.83 48 751.83 0 751.83 0 383.83 48 383.83 48 335.83 96 335.83" data-name="Left Arm"/><polyline id="1415bd8d-b0e5-4c40-bfbb-0bfa13720f18" points="240 831.83 288 831.83 288 479.83 288 671.83 288 751.83 336 751.83 336 383.83 288 383.83 288 335.83 240 335.83" data-name="Left Arm"/><rect id="96018915-e58a-4c64-877c-f554770ae680" width="48" height="16" x="256" y="447.83" class="151c7a60-74fb-4890-821a-e5e91e73649b" data-name="Pocket"/></g><rect id="aace992c-079f-437c-973f-45a4c73e2053" width="48" height="368" x="144" y="335.83" class="533a0079-423c-4ace-8051-4ad8285f30d0" data-name="Tie"/><g id="6b84e83d-0d2f-4f33-8bf6-93d4c3fef9db" data-name="Shoes"><rect id="89a70dd8-306f-4d33-b08d-a1136ba27cf9" width="144" height="48" y="1296" class="c4c9458a-9c5c-499f-8a24-75c9ad8435b3" data-name="Left Shoe"/><rect id="1f813f63-5f8b-441b-8ffb-eac871f1e064" width="144" height="48" x="192" y="1296" class="c4c9458a-9c5c-499f-8a24-75c9ad8435b3" data-name="Right Shoe"/></g></svg>