<svg xmlns="http://www.w3.org/2000/svg" width="562.027" height="383.982" viewBox="0 0 562.027 383.982"><title>grantmatch-icon</title><g><polygon fill="#fcaf17" points="213.583 149.953 280.977 257.545 427.676 257.545 494.964 149.953 213.583 149.953"/><polygon fill="#ffde17" points="562.026 257.543 427.676 257.543 349.152 383.982 483.478 383.982 562.026 257.543"/><polygon fill="#00aba9" points="0 107.569 93.755 257.541 228.087 257.541 134.338 107.569 0 107.569"/><polygon fill="#00aeef" points="466.056 107.569 399.269 .001 67.073 .001 134.338 107.569 466.056 107.569"/><polygon fill="#008097" points="67.073 0 67.073 0 0 107.568 134.338 107.568 67.073 0"/><polygon fill="#f58220" points="494.966 149.953 427.683 257.545 562.027 257.545 494.966 149.953"/></g></svg>